<svg xmlns="http://www.w3.org/2000/svg" width="70" height="70" viewBox="0 0 70 70">
  <g id="Group_14" data-name="Group 14" transform="translate(-204 -376)">
    <g id="Group_13" data-name="Group 13">
      <g id="Group_2" data-name="Group 2" transform="translate(9 -7)">
        <rect id="Rectangle_2" data-name="Rectangle 2" width="70" height="70" transform="translate(195 383)"/>
      </g>
    </g>
    <g id="Group_12" data-name="Group 12" transform="translate(-3 -3)">
      <path id="Path_353" data-name="Path 353" d="M273.755,371.435H262.924V397.4H246.765V371.435H239.13v-9.15h7.635v-5.942a9.178,9.178,0,0,1,1.243-4.694,10.6,10.6,0,0,1,4.883-4.338,23.635,23.635,0,0,1,10.121-1.9l11.986.059v8.913h-8.7a4.68,4.68,0,0,0-2.219.475,2.142,2.142,0,0,0-1.154,2.02v5.407h12.252Z" transform="translate(-14.561 42.599)" fill="#fff"/>
    </g>
  </g>
</svg>
